<?xml version="1.0" encoding="UTF-8"?>
<svg width="192px" height="96px" viewBox="0 0 192 96" version="1.1" xmlns="http://www.w3.org/2000/svg" xmlns:xlink="http://www.w3.org/1999/xlink">
    <title>Logo</title>
    <g id="Website" stroke="none" stroke-width="1" fill="none" fill-rule="evenodd">
        <g id="Logo">
            <rect id="Rectangle" fill="#231F20" x="0" y="0" width="192" height="96"></rect>
            <g id="Logo-/-Logo-2021" transform="translate(24.000000, 12.000000)">
                <polygon id="Fill-1" fill="#231F20" points="0 0 143.931351 0 143.931351 72.0672 0 72.0672"></polygon>
                <polygon id="Stroke-3" stroke="#231F20" stroke-width="0.5669" points="0 0 143.931351 0 143.931351 72.0672 0 72.0672"></polygon>
                <g id="Group-21" transform="translate(5.575039, 14.280631)">
                    <polygon id="Fill-4" fill="#F4811F" points="4.32940369e-15 18.1833153 2.10087851 18.1833153 2.10087851 10.2187322 10.3543602 10.2187322 10.3543602 8.2651322 2.10087851 8.2651322 2.10087851 2.40439322 10.9796539 2.40439322 10.9796539 0.45079322 4.32940369e-15 0.45079322"></polygon>
                    <path d="M13.9059029,18.1833153 L16.0067814,18.1833153 L16.0067814,10.2187322 L18.7079109,10.2187322 L23.5099798,18.1833153 L26.0860588,18.1833153 L21.0589515,10.0183119 C23.8101053,9.59255593 25.4858078,7.9144678 25.4858078,5.33475254 C25.4858078,0.951742373 21.8592591,0.45079322 18.432828,0.45079322 L13.9059029,0.45079322 L13.9059029,18.1833153 Z M16.0067814,2.40439322 L18.958073,2.40439322 C21.0089069,2.40439322 23.234836,2.78005424 23.234836,5.33475254 C23.234836,8.2651322 20.2085384,8.2651322 17.8825607,8.2651322 L16.0067814,8.2651322 L16.0067814,2.40439322 Z" id="Fill-5" fill="#F4811F"></path>
                    <polygon id="Fill-6" fill="#F4811F" points="29.1873827 18.1833153 31.2882612 18.1833153 31.2882612 0.45079322 29.1873827 0.45079322"></polygon>
                    <polygon id="Fill-7" fill="#F4811F" points="35.6901357 18.1833153 47.2700609 18.1833153 47.2700609 16.2297153 37.7910142 16.2297153 37.7910142 9.91818305 46.2195912 9.91818305 46.2195912 7.96458305 37.7910142 7.96458305 37.7910142 2.40439322 46.8198422 2.40439322 46.8198422 0.45079322 35.6901357 0.45079322"></polygon>
                    <polygon id="Fill-8" fill="#F4811F" points="50.5213968 18.1833153 52.6222753 18.1833153 52.6222753 3.45634576 52.6723199 3.45634576 62.9266722 18.1833153 65.5777774 18.1833153 65.5777774 0.45079322 63.4768989 0.45079322 63.4768989 15.1778237 63.4268746 15.1778237 53.172502 0.45079322 50.5213968 0.45079322"></polygon>
                    <path d="M69.6544838,18.1833153 L76.4573826,18.1833153 C79.933899,18.1833153 85.1360811,15.8540339 85.1360811,9.31708475 C85.1360811,2.78005424 79.933899,0.45079322 76.4573826,0.45079322 L69.6544838,0.45079322 L69.6544838,18.1833153 Z M71.7554232,2.40439322 L75.7571237,2.40439322 C79.8088484,2.40439322 82.8851094,4.45812203 82.8851094,9.31708475 C82.8851094,14.1759661 79.8088484,16.2297153 75.7571237,16.2297153 L71.7554232,16.2297153 L71.7554232,2.40439322 Z" id="Fill-9" fill="#F4811F"></path>
                    <polygon id="Fill-10" fill="#F4811F" points="88.5124879 18.1833153 98.7168159 18.1833153 98.7168159 16.2297153 90.6133664 16.2297153 90.6133664 0.45079322 88.5124879 0.45079322"></polygon>
                    <polygon id="Fill-11" fill="#F4811F" points="101.017771 18.1833153 103.11865 18.1833153 103.11865 0.45079322 101.017771 0.45079322"></polygon>
                    <polygon id="Fill-12" fill="#F4811F" points="107.520524 18.1833153 119.100429 18.1833153 119.100429 16.2297153 109.621403 16.2297153 109.621403 9.91818305 118.049959 9.91818305 118.049959 7.96458305 109.621403 7.96458305 109.621403 2.40439322 118.65021 2.40439322 118.65021 0.45079322 107.520524 0.45079322"></polygon>
                    <path d="M132.481107,2.07880678 C131.180536,0.550983051 129.504834,0 127.529006,0 C124.427682,0 121.501433,1.70308475 121.501433,5.10933559 C121.501433,8.06477288 123.402194,9.16677966 125.903267,9.99329492 C129.054615,11.0452475 130.530261,11.4209288 130.530261,13.5998847 C130.530261,15.6286169 128.479407,16.6805695 126.678593,16.6805695 C125.152984,16.6805695 123.652356,16.004339 122.902012,14.7019525 L121.101259,16.1796 C122.301761,17.957878 124.502688,18.6341695 126.553542,18.6341695 C129.754915,18.6341695 132.781233,16.9811186 132.781233,13.4496407 C132.781233,9.96827797 130.230136,9.06656949 127.478962,8.19 C124.65272,7.28835254 123.752344,6.56202712 123.752344,4.93401356 C123.752344,2.83014915 125.678209,1.95353898 127.529006,1.95353898 C128.804514,1.95353898 130.05504,2.45448814 130.75536,3.58155254 L132.481107,2.07880678 Z" id="Fill-13" fill="#F4811F"></path>
                    <polygon id="Fill-14" fill="#FEFEFE" points="13.205583 47.4369763 24.7855082 47.4369763 24.7855082 45.4833763 15.3064615 45.4833763 15.3064615 39.1718441 23.7350384 39.1718441 23.7350384 37.2182441 15.3064615 37.2182441 15.3064615 31.6580339 24.3352894 31.6580339 24.3352894 29.7044542 13.205583 29.7044542"></polygon>
                    <polygon id="Fill-15" fill="#FEFEFE" points="32.2136194 47.4369763 34.3144979 47.4369763 34.3144979 39.7979593 40.9173198 29.7044542 38.3912043 29.7044542 33.2640282 37.7191322 28.2869452 29.7044542 25.6107974 29.7044542 32.2136194 39.7979593"></polygon>
                    <polygon id="Fill-16" fill="#FEFEFE" points="42.8931477 47.4369763 54.4730729 47.4369763 54.4730729 45.4833763 44.9940466 45.4833763 44.9940466 39.1718441 53.4226032 39.1718441 53.4226032 37.2182441 44.9940466 37.2182441 44.9940466 31.6580339 54.0228542 31.6580339 54.0228542 29.7044542 42.8931477 29.7044542"></polygon>
                    <path d="M71.9554392,32.0337153 C70.4548117,30.0801763 68.103832,29.2536407 65.702828,29.2536407 C60.4506013,29.2536407 56.699002,33.3612 56.699002,38.5707458 C56.699002,43.9555932 60.6256152,47.8878305 65.702828,47.8878305 C68.5290081,47.8878305 70.8299432,46.9109898 72.4056579,44.7821288 L70.8299432,43.4546441 C69.5794169,45.0576 67.8537308,45.9342305 65.702828,45.9342305 C61.7261092,45.9342305 58.9499128,42.6782237 58.9499128,38.5707458 C58.9499128,34.6886237 61.7510909,31.2072 65.702828,31.2072 C67.4035121,31.2072 69.0792145,31.9335661 70.1296842,33.3612 L71.9554392,32.0337153 Z" id="Fill-17" fill="#FEFEFE"></path>
                    <path d="M73.2810324,47.4369763 L75.6569938,47.4369763 L77.4827894,43.0789831 L86.3365425,43.0789831 L88.1372955,47.4369763 L90.5883238,47.4369763 L83.0601437,29.7044542 L81.0842954,29.7044542 L73.2810324,47.4369763 Z M85.5362146,41.1253831 L78.30816,41.1253831 L81.9846923,32.4094373 L82.0347166,32.4094373 L85.5362146,41.1253831 Z" id="Fill-18" fill="#FEFEFE"></path>
                    <path d="M92.9393644,47.4369763 L95.0402429,47.4369763 L95.0402429,39.4723932 L97.7413725,39.4723932 L102.543441,47.4369763 L105.11952,47.4369763 L100.092393,39.2719729 C102.843567,38.8461966 104.519269,37.1681288 104.519269,34.5884136 C104.519269,30.2054034 100.892721,29.7044542 97.4662896,29.7044542 L92.9393644,29.7044542 L92.9393644,47.4369763 Z M95.0402429,31.6580339 L97.9915143,31.6580339 C100.042368,31.6580339 102.268298,32.0337153 102.268298,34.5884136 C102.268298,37.5187932 99.242,37.5187932 96.9160019,37.5187932 L95.0402429,37.5187932 L95.0402429,31.6580339 Z" id="Fill-19" fill="#FEFEFE"></path>
                    <polygon id="Fill-20" fill="#FEFEFE" points="108.220844 47.4369763 119.800749 47.4369763 119.800749 45.4833763 110.321723 45.4833763 110.321723 39.1718441 118.750279 39.1718441 118.750279 37.2182441 110.321723 37.2182441 110.321723 31.6580339 119.35053 31.6580339 119.35053 29.7044542 108.220844 29.7044542"></polygon>
                </g>
            </g>
        </g>
    </g>
</svg>